<svg width="69" height="68" viewBox="0 0 69 68" fill="none" xmlns="http://www.w3.org/2000/svg">
<path d="M68.0359 35.4386C68.0359 44.0371 64.6201 52.2835 58.54 58.3635C52.46 64.4436 44.2136 67.8594 35.6151 67.8594C27.0166 67.8594 18.7702 64.4436 12.6902 58.3635C6.61009 52.2835 3.19434 44.0371 3.19434 35.4386L35.6151 35.4386H68.0359Z" fill="url(#paint0_linear)"/>
<circle cx="35.6151" cy="19.3378" r="11.1553" fill="url(#paint1_linear)"/>
<path d="M64.8415 32.4208C64.8415 41.0193 61.4258 49.2656 55.3457 55.3457C49.2656 61.4258 41.0193 64.8415 32.4208 64.8415C23.8222 64.8415 15.5759 61.4258 9.49582 55.3457C3.41575 49.2656 1.29834e-06 41.0193 0 32.4208L32.4208 32.4208H64.8415Z" fill="black"/>
<circle cx="32.4207" cy="16.32" r="11.1553" fill="black"/>
<defs>
<linearGradient id="paint0_linear" x1="-2.22903" y1="51.649" x2="60.8713" y2="51.4189" gradientUnits="userSpaceOnUse">
<stop offset="0.197917" stop-color="#B16CEA"/>
<stop offset="0.557292" stop-color="#FF5E69"/>
<stop offset="0.828125" stop-color="#FF8A56"/>
<stop offset="1" stop-color="#FFA84B"/>
</linearGradient>
<linearGradient id="paint1_linear" x1="16.7678" y1="16.8223" x2="43.2067" y2="14.776" gradientUnits="userSpaceOnUse">
<stop offset="0.197917" stop-color="#B16CEA"/>
<stop offset="0.557292" stop-color="#FF5E69"/>
<stop offset="0.828125" stop-color="#FF8A56"/>
<stop offset="1" stop-color="#FFA84B"/>
</linearGradient>
</defs>
</svg>
